<svg id="Layer_1" data-name="Layer 1" xmlns="http://www.w3.org/2000/svg" viewBox="0 0 199.98 230.37"><defs><style>.cls-1{fill:#06816f;}.cls-2{fill:#0075bc;}</style></defs><title>Ubox</title><path class="cls-1" d="M420.92,315.05V430.29l99.81-57.62V257.42ZM450.59,327l23.75-13.81V326l-23.75,13.81Zm48.34,28-47.49,27.62V357l47.49-27.63Z" transform="translate(-320.76 -199.92)"/><path class="cls-2" d="M492.21,240.92l-.14.21-99.56,57.48-.11-.06v.12l-.13.08h.13l-.13,83.11-42.54-25.08-.05-82.9,99.56-57.49L420.7,199.92l-.13.21-99.32,57.34-.11-.07v.13l-.38.22h.14l.24.14V372.65h-.38l99.81,57.62h.37V315l99.81-57.63Z" transform="translate(-320.76 -199.92)"/></svg>